<svg xmlns="http://www.w3.org/2000/svg" width="152" height="33" viewBox="0 0 152 33"><path fill="#000" d="M3.37 12.89c.13-.86.22-1.64.28-2.33h6.65a74.92 74.92 0 0 1-.35 3.11h.09a8.92 8.92 0 0 1 2.59-2.55A7.06 7.06 0 0 1 16.61 10c1.7 0 3.07.35 4.1 1.06a5.57 5.57 0 0 1 2.16 2.74 10.66 10.66 0 0 1 2.99-2.74A7.85 7.85 0 0 1 30.04 10c1.24 0 2.32.19 3.22.56a6.5 6.5 0 0 1 2.23 1.51c.6.64 1.03 1.36 1.31 2.18.27.82.41 1.66.41 2.52a11.9 11.9 0 0 1-.17 2.03l-2.39 13.25h-6.96l2.04-11.65c.15-.66.22-1.27.22-1.81 0-.84-.22-1.53-.65-2.1-.44-.56-1.16-.84-2.17-.84-.61 0-1.16.14-1.66.41a4.8 4.8 0 0 0-1.3 1.08c-.38.45-.68.97-.91 1.55a9.74 9.74 0 0 0-.53 1.8l-2.04 11.56h-7l2.18-12.3c.08-.43.13-.83.13-1.21 0-.83-.21-1.52-.63-2.07-.42-.54-1.08-.82-1.98-.82a3.5 3.5 0 0 0-2.89 1.41 7.3 7.3 0 0 0-1.46 3.34L6.96 32.05H0l3-17.04c.11-.55.24-1.26.37-2.12M61 17.05a12.45 12.45 0 0 1-.27 2.68l-1.5 8.5a24.43 24.43 0 0 0-.45 4.24h-6.3a16.09 16.09 0 0 1 .18-2.32h-.09C50.95 32.05 48.7 33 45.83 33c-.77 0-1.56-.1-2.37-.29a6.6 6.6 0 0 1-2.22-.96 5.28 5.28 0 0 1-1.62-1.79 5.63 5.63 0 0 1-.62-2.74c0-1.76.44-3.18 1.33-4.3a8.78 8.78 0 0 1 3.48-2.58 18.35 18.35 0 0 1 4.88-1.27c1.82-.23 3.65-.35 5.48-.35.06-.26.09-.47.09-.62v-.39c0-.85-.31-1.47-.91-1.86a4.72 4.72 0 0 0-2.55-.59c-1.01 0-2.02.19-3.04.57a11 11 0 0 0-2.77 1.49l-2.93-4.03a14.84 14.84 0 0 1 4.59-2.44 16.6 16.6 0 0 1 5.13-.85c1.32 0 2.55.14 3.68.42 1.12.27 2.09.71 2.9 1.29a6.35 6.35 0 0 1 1.93 2.19c.47.87.71 1.93.71 3.15zm-10.56 5.98c-.91.08-1.73.23-2.46.46-.72.24-1.32.56-1.79.97-.48.41-.71.95-.71 1.62 0 .87.3 1.47.91 1.77.6.31 1.27.46 2.01.46 1.36 0 2.5-.41 3.42-1.25a5.45 5.45 0 0 0 1.73-3.08l.22-1.06h-.62c-.89 0-1.79.04-2.71.11zM71.74 13.7a9.5 9.5 0 0 1 2.43-2.67A5.63 5.63 0 0 1 77.56 10c.26 0 .52.02.78.04.27.03.49.08.66.13l-1.1 6.12a5.1 5.1 0 0 0-.88-.18c-.28-.02-.55-.04-.81-.04a5.32 5.32 0 0 0-5.12 3.4 9.9 9.9 0 0 0-.44 1.51L68.75 32H62l3-17.01c.11-.54.23-1.24.35-2.11.13-.86.22-1.63.28-2.32h6.41l-.04.62-.11.87-.13.9-.1.75h.08M92.25 33l-5.46-10.43h-.12L84.86 33H78l5.71-33h6.9l-3.52 20.08h.13l8.11-8.82H104L93.7 21.43 100.44 33h-8.19M122.84 26.91L121.81 33h-6.53l.99-6.09H102l1.08-6.17L118.2 2h8.81l-3.31 19.05h4.3l-.99 5.86zM119.19 9l-9.41 12.05h7.43L119.36 9z"/><path fill="#000" d="M143.37 12.84a3.54 3.54 0 0 0 1.55-3.09c0-.91-.31-1.64-.94-2.18a3.75 3.75 0 0 0-2.56-.82c-1.13 0-2.1.26-2.9.79a5.41 5.41 0 0 0-1.9 2.21l-5.86-2.31a10.3 10.3 0 0 1 4.63-4.89 14.95 14.95 0 0 1 10.33-1.08c1.2.32 2.27.8 3.19 1.46a7.5 7.5 0 0 1 2.24 2.51 7.3 7.3 0 0 1 .85 3.63 6.86 6.86 0 0 1-1.95 4.93 7.32 7.32 0 0 1-1.96 1.46 9.4 9.4 0 0 1-2.17.81v.09a6.19 6.19 0 0 1 3.5 2.31 6.53 6.53 0 0 1 1.27 3.99c0 1.72-.34 3.22-1.03 4.51a9.53 9.53 0 0 1-2.73 3.21 12.26 12.26 0 0 1-3.93 1.95c-1.49.45-3.04.67-4.64.67-1.42 0-2.75-.17-3.97-.49a11.47 11.47 0 0 1-3.32-1.46 9.1 9.1 0 0 1-2.52-2.43 10.8 10.8 0 0 1-1.55-3.34l6.64-1.76a4.65 4.65 0 0 0 1.75 2.62c.85.6 1.92.9 3.24.9a5.4 5.4 0 0 0 3.47-1.07 3.6 3.6 0 0 0 1.33-2.96c0-.75-.15-1.38-.46-1.89a3.3 3.3 0 0 0-1.24-1.22 5.88 5.88 0 0 0-1.84-.65c-.7-.13-1.44-.19-2.22-.19h-1.93l.88-5.15h2.22c1.99 0 3.49-.36 4.53-1.07"/></svg>
