<svg xmlns="http://www.w3.org/2000/svg" height="132.37" viewBox="0 0 479.20001 132.37334" width="479.2"><defs><clipPath id="a"><path d="M0 992.8V0h3594v992.8H0z"/></clipPath></defs><g clip-path="url(#a)" fill="#0838ef" transform="matrix(.1333 0 0 -.1333 0 132.37)"><path d="M3268 71.785C3268 32.117 3235.8 0 3196.2 0c-39.57 0-71.74 32.117-71.74 71.785v219.56S3268 265.438 3268 192.195V71.786M229.87 334.52h-70.097v294.79h97.34c128.22 0 147.34-92.382 147.34-147.45 0-121.84-94.985-147.34-174.58-147.34zm45.43 331.73H0V643.2l2.285-.28c71.72-8.98 79.53-22.13 79.53-70.15V102.64c0-48.028-7.81-61.106-79.554-70.125L0 32.207V9.102h241.53v23.105l-2.285.305c-71.68 9.02-79.47 22.097-79.47 70.128v194.9h70.097c88.07 0 155.56 20.82 200.56 62.05 36.426 33.263 56.523 79.954 56.523 131.37 0 108.2-81.125 175.29-211.65 175.29M762.98 208.34l-1.73-108.88c-49.41-34.348-75.48-44.223-115.6-44.223-21.954 0-47.407 14.23-52.856 54.113-5.406 37.06 14.66 62.13 58.023 72.56l112.17 26.43zm118.88-139.9c-14.613 0-24.066 2.97-30.613 9.785-8.938 9.063-12.766 25.468-12.117 51.543l4.54 222.72c.932 39.574-9.806 71.985-31.118 93.87-20.168 20.615-49.575 31.474-85.098 31.474-88.453 0-150.2-47.22-178.48-91.367-19.622-30.613-25.15-62.403-14.715-85.05 3.71-7.946 12.378-12.45 24.307-12.45 20.618.066 49.075 13.84 56.285 32.09 2.743 7.13 3.598 17.793-8.332 28.906-10.957 10.13-13.902 29.286-7.12 46.556 4.644 11.972 21.238 39.832 73.527 39.832 26.91 0 49.886-8.977 66.19-25.782 18.29-18.69 27.482-46.6 26.673-80.625L764 236.583l-127.89-22.41c-79.83-13.88-120.28-48.43-120.28-102.52 0-61.533 46-111.65 102.6-111.65 52.55 0 89.67 23.953 142.82 71.172C762.3 23.29 780.96.002 818.32.002c28.09 0 55.622 18.328 110.58 54.98l1.145.762V73.87l-3.004-.51c-16.57-2.518-32.26-4.92-45.17-4.92M1098.5 412.11c25.29 26.22 58.1 39.57 97.5 39.57 78.46 0 106.44-66.706 106.44-129.19V102.81c-30.78-26.268-71.15-41.307-111.02-41.307-81.23 0-138.58 73.906-142.83 183.89-2.64 71.406 15.08 130.64 49.91 166.72zM1435 78.03c-35.36 0-54.57 9.258-54.57 58.164v600.08h-11.72l-138.92-41.653v-22.37l2.23-.293c62.2-8.894 70.48-21.19 70.48-65.555v-147.41c-28.79 17.414-71.31 25.168-101.95 25.168-59.72 0-118.82-23.457-161.99-64.305-46.688-44.296-72.333-106.29-72.333-174.66 0-142.85 77.763-238.84 193.48-238.84 50.7 0 105.08 23.543 142.79 61.668V6.355h12.09l156.68 46.102V79.86l-2.76-.196c-13.67-1.074-24.11-1.64-33.51-1.64M1644.3 405.77c25.26 26.27 58.09 39.61 97.45 39.61 78.5 0 106.47-66.723 106.47-129.18V96.56c-30.75-26.312-71.13-41.312-110.99-41.312-81.22 0-138.61 73.832-142.86 183.79-2.6 71.43 15.09 130.68 49.93 166.74zm336.4-334.08c-35.38 0-54.57 9.285-54.57 58.172v600.07h-11.69l-138.95-41.575v-22.46l2.23-.254c62.19-8.86 70.5-21.192 70.5-65.594V452.73c-28.78 17.31-71.3 25.104-101.9 25.104-59.8 0-118.84-23.387-162.01-64.344-46.69-44.172-72.36-106.24-72.36-174.54.1-142.9 77.8-238.96 193.5-238.96 50.81 0 105.13 23.594 142.83 61.7V-.01h12.07l156.77 46.12v27.454l-2.88-.168c-13.61-1.12-24.04-1.715-33.48-1.715M2220.7 102.65v627.29h-11.66l-138.96-41.575v-22.46l2.25-.254c62.18-8.86 70.46-21.19 70.46-65.593v-497.4c0-48.07-7.83-61.195-79.52-70.097l-2.26-.383V9.11h241.55v23.067l-2.33.383c-71.69 8.902-79.53 22.027-79.53 70.097M2558.3 445.38c29.02 0 52.17-9.836 66.76-28.352 18.12-22.918 22.28-58.445 12.05-102.76h-219.3c14.72 82.148 67.13 131.11 140.49 131.11zm162.32-345.09c-42.62-24.246-89.8-36.008-144.14-36.008-43.52 0-81.68 15.957-110.28 46.008-36.96 38.926-55.67 98.145-52.69 166.91h305.15l.31 2.14c11.5 62.958 2.64 112.36-26.25 146.95-37.45 44.813-97.45 51.532-129.86 51.532-111.92 0-225.28-83.652-225.28-243.44 0-116.47 74.2-234.38 216.1-234.38 87.33 0 143.06 46.406 169.81 68.828l.98.774v32.93l-3.92-2.24M3196.2 419.28c-94.14 0-170.54 69.24-170.54 154.53 0 39.804 16.75 75.91 43.92 103.29-17.15 22.597-27.22 49.76-27.22 79.148 0 76.945 68.86 139.47 153.86 139.47 84.96 0 153.82-62.528 153.82-139.47 0-29.387-10.07-56.648-27.17-79.148 27.17-27.383 43.93-63.49 43.93-103.29 0-85.293-76.41-154.53-170.6-154.53zm0 573.53c-316.58 0-397.79-120.94-397.79-331.37 0-214.49 61.99-256.13 397.79-357.99 335.82 101.86 397.8 143.5 397.8 357.99 0 210.42-81.19 331.37-397.8 331.37"/><path d="M3196.2 690.98c39.74 0 71.98 29.238 71.98 65.273 0 35.97-32.24 65.203-71.98 65.203-39.73 0-71.98-29.234-71.98-65.203 0-36.035 32.25-65.273 71.98-65.273M3196.2 649.72c-46.14 0-83.62-33.985-83.62-75.91 0-41.817 37.48-75.71 83.62-75.71 46.16 0 83.65 33.893 83.65 75.71 0 41.925-37.49 75.91-83.65 75.91"/></g></svg>