<?xml version="1.0" encoding="utf-8"?>
<!-- Generator: Adobe Illustrator 16.0.0, SVG Export Plug-In . SVG Version: 6.00 Build 0)  -->
<!DOCTYPE svg PUBLIC "-//W3C//DTD SVG 1.1//EN" "http://www.w3.org/Graphics/SVG/1.1/DTD/svg11.dtd">
<svg version="1.1" id="Layer_1" xmlns="http://www.w3.org/2000/svg" xmlns:xlink="http://www.w3.org/1999/xlink" x="0px" y="0px"
	 width="1510px" height="445px" viewBox="0 0 1510 445" enable-background="new 0 0 1510 445" xml:space="preserve">
<path d="M280.349,111.833l30.714-53.518c9.195-15.63,3.678-35.496-11.956-44.691c-15.633-9.014-35.495-3.676-44.691,11.955
	l-30.713,53.518c-65.657-20.782-139.408,5.886-175.271,68.231C25.627,186.869,22.868,232.48,36.846,272.21l56.829-98.764
	c13.058-22.805,34.209-38.988,59.404-45.795c25.382-6.806,51.864-3.495,74.485,9.751c46.9,27.033,62.899,86.989,35.864,134.072
	c-27.036,47.082-86.991,62.896-134.074,35.863l32.737-56.646c15.631,9.195,35.496,3.677,44.691-11.955
	c9.196-15.634,3.678-35.495-11.956-44.69c-15.632-9.011-35.494-3.679-44.691,11.952L46.041,386.604
	c-9.013,15.631-3.678,35.496,11.955,44.691c15.634,9.193,35.496,3.68,44.691-11.955l30.714-53.519
	c65.658,20.782,139.407-5.882,175.271-68.231C344.903,235.429,331.293,158.183,280.349,111.833L280.349,111.833z M418.837,150.456
	h50.577c29.242,0,53.52,14.53,53.52,48.371c0,33.654-24.46,48.37-53.52,48.37h-20.965v47.267h-29.611V150.456L418.837,150.456z
	 M468.68,221.081c14.526,0,23.907-6.62,23.907-22.438c0-16.187-9.747-22.254-23.907-22.254h-20.231v44.688L468.68,221.081
	L468.68,221.081z M566.522,150.456h95.269v26.117h-65.659v32.92h57.749v25.38h-57.749v33.656h68.599v26.116h-98.208V150.456
	L566.522,150.456z M714.571,150.456h29.611v117.706h65.105v26.117h-94.716V150.456L714.571,150.456z M842.575,222.365
	c0-42.297,32.923-73.932,74.487-73.932c41.563,0,74.486,31.268,74.486,73.932c0,42.673-32.924,73.937-74.486,73.937
	C875.498,296.302,842.575,265.038,842.575,222.365L842.575,222.365z M961.204,222.365c0-26.666-17.842-47.444-44.142-47.444
	c-26.298,0-44.144,20.411-44.144,47.444c0,26.671,17.662,47.454,44.144,47.454C943.178,270.002,961.204,249.221,961.204,222.365z
	 M1064.38,176.573h-41.015v-26.117h111.822v26.117h-41.016v117.706h-29.608V176.573H1064.38z M1166.819,222.365
	c0-42.297,32.92-73.932,74.483-73.932s74.487,31.268,74.487,73.932c0,42.673-32.924,73.937-74.487,73.937
	C1199.921,296.302,1166.819,265.038,1166.819,222.365L1166.819,222.365z M1285.442,222.365c0-26.666-17.839-47.444-44.14-47.444
	c-26.3,0-44.138,20.411-44.138,47.444c0,26.671,17.838,47.454,44.138,47.454C1267.791,270.002,1285.442,249.221,1285.442,222.365z
	 M1406.463,227.519c-7.176-6.806-17.106-19.681-17.106-19.681s2.024,16.001,2.024,26.117v60.325h-27.587V149.168h2.755
	l72.463,68.235c7.174,6.62,17.105,19.675,17.105,19.675s-2.024-16.182-2.024-26.112v-60.325h27.589V295.75h-2.76L1406.463,227.519
	L1406.463,227.519z"/>
</svg>
